<?xml version="1.0" encoding="utf-8" standalone="no"?>
<!DOCTYPE svg PUBLIC "-//W3C//DTD SVG 1.1//EN"
  "http://www.w3.org/Graphics/SVG/1.1/DTD/svg11.dtd">
<svg xmlns:xlink="http://www.w3.org/1999/xlink" width="1152pt" height="576pt" viewBox="0 0 1152 576" xmlns="http://www.w3.org/2000/svg" version="1.1">
 <metadata>
  <rdf:RDF xmlns:dc="http://purl.org/dc/elements/1.1/" xmlns:cc="http://creativecommons.org/ns#" xmlns:rdf="http://www.w3.org/1999/02/22-rdf-syntax-ns#">
   <cc:Work>
    <dc:type rdf:resource="http://purl.org/dc/dcmitype/StillImage"/>
    <dc:date>2025-06-05T16:31:52.548235</dc:date>
    <dc:format>image/svg+xml</dc:format>
    <dc:creator>
     <cc:Agent>
      <dc:title>Matplotlib v3.5.2, https://matplotlib.org/</dc:title>
     </cc:Agent>
    </dc:creator>
   </cc:Work>
  </rdf:RDF>
 </metadata>
 <defs>
  <style type="text/css">*{stroke-linejoin: round; stroke-linecap: butt}</style>
 </defs>
 <g id="figure_1">
  <g id="patch_1">
   <path d="M 0 576 
L 1152 576 
L 1152 0 
L 0 0 
z
" style="fill: #ffffff"/>
  </g>
  <g id="axes_1">
   <g id="patch_2">
    <path d="M 524.675 320.04 
C 524.675 287.845884 518.333461 255.964815 506.013306 226.22133 
C 493.693151 196.477845 475.633976 169.450379 452.869298 146.685702 
C 430.104621 123.921024 403.077155 105.861849 373.33367 93.541694 
C 343.590185 81.221539 311.709116 74.88 279.515 74.88 
C 247.320884 74.88 215.439815 81.221539 185.69633 93.541694 
C 155.952845 105.861849 128.925379 123.921024 106.160702 146.685702 
C 83.396024 169.450379 65.336849 196.477845 53.016694 226.22133 
C 40.696539 255.964815 34.355 287.845884 34.355 320.04 
C 34.355 352.234116 40.696539 384.115185 53.016694 413.85867 
C 65.336849 443.602155 83.396024 470.629621 106.160702 493.394298 
C 128.925379 516.158976 155.952845 534.218151 185.69633 546.538306 
C 215.439815 558.858461 247.320884 565.2 279.515 565.2 
C 311.709116 565.2 343.590185 558.858461 373.33367 546.538306 
C 403.077155 534.218151 430.104621 516.158976 452.869298 493.394298 
C 475.633976 470.629621 493.693151 443.602155 506.013306 413.85867 
C 518.333461 384.115185 524.675 352.234116 524.675 320.04 
M 279.515 320.04 
C 279.515 320.04 279.515 320.04 279.515 320.04 
C 279.515 320.04 279.515 320.04 279.515 320.04 
C 279.515 320.04 279.515 320.04 279.515 320.04 
C 279.515 320.04 279.515 320.04 279.515 320.04 
C 279.515 320.04 279.515 320.04 279.515 320.04 
C 279.515 320.04 279.515 320.04 279.515 320.04 
C 279.515 320.04 279.515 320.04 279.515 320.04 
C 279.515 320.04 279.515 320.04 279.515 320.04 
C 279.515 320.04 279.515 320.04 279.515 320.04 
C 279.515 320.04 279.515 320.04 279.515 320.04 
C 279.515 320.04 279.515 320.04 279.515 320.04 
C 279.515 320.04 279.515 320.04 279.515 320.04 
C 279.515 320.04 279.515 320.04 279.515 320.04 
C 279.515 320.04 279.515 320.04 279.515 320.04 
C 279.515 320.04 279.515 320.04 279.515 320.04 
C 279.515 320.04 279.515 320.04 279.515 320.04 
M 524.675 320.04 
z
" style="fill: #ffffff"/>
   </g>
   <g id="patch_3">
    <path d="M 425.14004 320.04 
L 195.05738 173.755111 
L 241.88294 385.22064 
z
" clip-path="url(#p363253c4cb)" style="fill: #66c2a5; opacity: 0.1; stroke: #66c2a5; stroke-linejoin: miter"/>
   </g>
   <g id="patch_4">
    <path d="M 412.14656 320.04 
L 217.12178 211.971773 
L 240.16682 388.193047 
z
" clip-path="url(#p363253c4cb)" style="fill: #fc8d62; opacity: 0.1; stroke: #fc8d62; stroke-linejoin: miter"/>
   </g>
   <g id="patch_5">
    <path d="M 503.10092 320.04 
L 166.1285 123.648821 
L 204.37346 450.188965 
z
" clip-path="url(#p363253c4cb)" style="fill: #8da0cb; opacity: 0.1; stroke: #8da0cb; stroke-linejoin: miter"/>
   </g>
   <g id="patch_6">
    <path d="M 438.869 320.04 
L 189.4187 163.988631 
L 175.81232 499.658311 
z
" clip-path="url(#p363253c4cb)" style="fill: #e78ac3; opacity: 0.1; stroke: #e78ac3; stroke-linejoin: miter"/>
   </g>
   <g id="matplotlib.axis_1">
    <g id="xtick_1">
     <g id="line2d_1">
      <path d="M 279.515 320.04 
L 524.675 320.04 
" clip-path="url(#p363253c4cb)" style="fill: none; stroke: #b0b0b0; stroke-width: 0.8; stroke-linecap: square"/>
     </g>
     <g id="text_1">
      <!-- ARI -->
      <g transform="translate(530.305469 322.799375)scale(0.1 -0.1)">
       <defs>
        <path id="DejaVuSans-41" d="M 2188 4044 
L 1331 1722 
L 3047 1722 
L 2188 4044 
z
M 1831 4666 
L 2547 4666 
L 4325 0 
L 3669 0 
L 3244 1197 
L 1141 1197 
L 716 0 
L 50 0 
L 1831 4666 
z
" transform="scale(0.015625)"/>
        <path id="DejaVuSans-52" d="M 2841 2188 
Q 3044 2119 3236 1894 
Q 3428 1669 3622 1275 
L 4263 0 
L 3584 0 
L 2988 1197 
Q 2756 1666 2539 1819 
Q 2322 1972 1947 1972 
L 1259 1972 
L 1259 0 
L 628 0 
L 628 4666 
L 2053 4666 
Q 2853 4666 3247 4331 
Q 3641 3997 3641 3322 
Q 3641 2881 3436 2590 
Q 3231 2300 2841 2188 
z
M 1259 4147 
L 1259 2491 
L 2053 2491 
Q 2509 2491 2742 2702 
Q 2975 2913 2975 3322 
Q 2975 3731 2742 3939 
Q 2509 4147 2053 4147 
L 1259 4147 
z
" transform="scale(0.015625)"/>
        <path id="DejaVuSans-49" d="M 628 4666 
L 1259 4666 
L 1259 0 
L 628 0 
L 628 4666 
z
" transform="scale(0.015625)"/>
       </defs>
       <use xlink:href="#DejaVuSans-41"/>
       <use xlink:href="#DejaVuSans-52" x="68.408203"/>
       <use xlink:href="#DejaVuSans-49" x="137.890625"/>
      </g>
     </g>
    </g>
    <g id="xtick_2">
     <g id="line2d_2">
      <path d="M 279.515 320.04 
L 156.935 107.725212 
" clip-path="url(#p363253c4cb)" style="fill: none; stroke: #b0b0b0; stroke-width: 0.8; stroke-linecap: square"/>
     </g>
     <g id="text_2">
      <!-- NMI -->
      <g transform="translate(140.405313 98.360231)scale(0.1 -0.1)">
       <defs>
        <path id="DejaVuSans-4e" d="M 628 4666 
L 1478 4666 
L 3547 763 
L 3547 4666 
L 4159 4666 
L 4159 0 
L 3309 0 
L 1241 3903 
L 1241 0 
L 628 0 
L 628 4666 
z
" transform="scale(0.015625)"/>
        <path id="DejaVuSans-4d" d="M 628 4666 
L 1569 4666 
L 2759 1491 
L 3956 4666 
L 4897 4666 
L 4897 0 
L 4281 0 
L 4281 4097 
L 3078 897 
L 2444 897 
L 1241 4097 
L 1241 0 
L 628 0 
L 628 4666 
z
" transform="scale(0.015625)"/>
       </defs>
       <use xlink:href="#DejaVuSans-4e"/>
       <use xlink:href="#DejaVuSans-4d" x="74.804688"/>
       <use xlink:href="#DejaVuSans-49" x="161.083984"/>
      </g>
     </g>
    </g>
    <g id="xtick_3">
     <g id="line2d_3">
      <path d="M 279.515 320.04 
L 156.935 532.354788 
" clip-path="url(#p363253c4cb)" style="fill: none; stroke: #b0b0b0; stroke-width: 0.8; stroke-linecap: square"/>
     </g>
     <g id="text_3">
      <!-- SC -->
      <g transform="translate(143.269375 547.238519)scale(0.1 -0.1)">
       <defs>
        <path id="DejaVuSans-53" d="M 3425 4513 
L 3425 3897 
Q 3066 4069 2747 4153 
Q 2428 4238 2131 4238 
Q 1616 4238 1336 4038 
Q 1056 3838 1056 3469 
Q 1056 3159 1242 3001 
Q 1428 2844 1947 2747 
L 2328 2669 
Q 3034 2534 3370 2195 
Q 3706 1856 3706 1288 
Q 3706 609 3251 259 
Q 2797 -91 1919 -91 
Q 1588 -91 1214 -16 
Q 841 59 441 206 
L 441 856 
Q 825 641 1194 531 
Q 1563 422 1919 422 
Q 2459 422 2753 634 
Q 3047 847 3047 1241 
Q 3047 1584 2836 1778 
Q 2625 1972 2144 2069 
L 1759 2144 
Q 1053 2284 737 2584 
Q 422 2884 422 3419 
Q 422 4038 858 4394 
Q 1294 4750 2059 4750 
Q 2388 4750 2728 4690 
Q 3069 4631 3425 4513 
z
" transform="scale(0.015625)"/>
        <path id="DejaVuSans-43" d="M 4122 4306 
L 4122 3641 
Q 3803 3938 3442 4084 
Q 3081 4231 2675 4231 
Q 1875 4231 1450 3742 
Q 1025 3253 1025 2328 
Q 1025 1406 1450 917 
Q 1875 428 2675 428 
Q 3081 428 3442 575 
Q 3803 722 4122 1019 
L 4122 359 
Q 3791 134 3420 21 
Q 3050 -91 2638 -91 
Q 1578 -91 968 557 
Q 359 1206 359 2328 
Q 359 3453 968 4101 
Q 1578 4750 2638 4750 
Q 3056 4750 3426 4639 
Q 3797 4528 4122 4306 
z
" transform="scale(0.015625)"/>
       </defs>
       <use xlink:href="#DejaVuSans-53"/>
       <use xlink:href="#DejaVuSans-43" x="63.476562"/>
      </g>
     </g>
    </g>
   </g>
   <g id="matplotlib.axis_2">
    <g id="ytick_1">
     <g id="line2d_4">
      <path d="M 328.547 320.04 
C 328.547 313.601177 327.278692 307.224963 324.814661 301.276266 
C 322.35063 295.327569 318.738795 289.922076 314.18586 285.36914 
C 309.632924 280.816205 304.227431 277.20437 298.278734 274.740339 
C 292.330037 272.276308 285.953823 271.008 279.515 271.008 
C 273.076177 271.008 266.699963 272.276308 260.751266 274.740339 
C 254.802569 277.20437 249.397076 280.816205 244.84414 285.36914 
C 240.291205 289.922076 236.67937 295.327569 234.215339 301.276266 
C 231.751308 307.224963 230.483 313.601177 230.483 320.04 
C 230.483 326.478823 231.751308 332.855037 234.215339 338.803734 
C 236.67937 344.752431 240.291205 350.157924 244.84414 354.71086 
C 249.397076 359.263795 254.802569 362.87563 260.751266 365.339661 
C 266.699963 367.803692 273.076177 369.072 279.515 369.072 
C 285.953823 369.072 292.330037 367.803692 298.278734 365.339661 
C 304.227431 362.87563 309.632924 359.263795 314.18586 354.71086 
C 318.738795 350.157924 322.35063 344.752431 324.814661 338.803734 
C 327.278692 332.855037 328.547 326.478823 328.547 320.04 
" clip-path="url(#p363253c4cb)" style="fill: none; stroke: #b0b0b0; stroke-width: 0.8; stroke-linecap: square"/>
     </g>
     <g id="text_4">
      <!-- 0.2 -->
      <g transform="translate(324.814661 299.196578)scale(0.1 -0.1)">
       <defs>
        <path id="DejaVuSans-30" d="M 2034 4250 
Q 1547 4250 1301 3770 
Q 1056 3291 1056 2328 
Q 1056 1369 1301 889 
Q 1547 409 2034 409 
Q 2525 409 2770 889 
Q 3016 1369 3016 2328 
Q 3016 3291 2770 3770 
Q 2525 4250 2034 4250 
z
M 2034 4750 
Q 2819 4750 3233 4129 
Q 3647 3509 3647 2328 
Q 3647 1150 3233 529 
Q 2819 -91 2034 -91 
Q 1250 -91 836 529 
Q 422 1150 422 2328 
Q 422 3509 836 4129 
Q 1250 4750 2034 4750 
z
" transform="scale(0.015625)"/>
        <path id="DejaVuSans-2e" d="M 684 794 
L 1344 794 
L 1344 0 
L 684 0 
L 684 794 
z
" transform="scale(0.015625)"/>
        <path id="DejaVuSans-32" d="M 1228 531 
L 3431 531 
L 3431 0 
L 469 0 
L 469 531 
Q 828 903 1448 1529 
Q 2069 2156 2228 2338 
Q 2531 2678 2651 2914 
Q 2772 3150 2772 3378 
Q 2772 3750 2511 3984 
Q 2250 4219 1831 4219 
Q 1534 4219 1204 4116 
Q 875 4013 500 3803 
L 500 4441 
Q 881 4594 1212 4672 
Q 1544 4750 1819 4750 
Q 2544 4750 2975 4387 
Q 3406 4025 3406 3419 
Q 3406 3131 3298 2873 
Q 3191 2616 2906 2266 
Q 2828 2175 2409 1742 
Q 1991 1309 1228 531 
z
" transform="scale(0.015625)"/>
       </defs>
       <use xlink:href="#DejaVuSans-30"/>
       <use xlink:href="#DejaVuSans-2e" x="63.623047"/>
       <use xlink:href="#DejaVuSans-32" x="95.410156"/>
      </g>
     </g>
    </g>
    <g id="ytick_2">
     <g id="line2d_5">
      <path d="M 377.579 320.04 
C 377.579 307.162354 375.042384 294.409926 370.114322 282.512532 
C 365.186261 270.615138 357.962591 259.804152 348.856719 250.698281 
C 339.750848 241.592409 328.939862 234.368739 317.042468 229.440678 
C 305.145074 224.512616 292.392646 221.976 279.515 221.976 
C 266.637354 221.976 253.884926 224.512616 241.987532 229.440678 
C 230.090138 234.368739 219.279152 241.592409 210.173281 250.698281 
C 201.067409 259.804152 193.843739 270.615138 188.915678 282.512532 
C 183.987616 294.409926 181.451 307.162354 181.451 320.04 
C 181.451 332.917646 183.987616 345.670074 188.915678 357.567468 
C 193.843739 369.464862 201.067409 380.275848 210.173281 389.381719 
C 219.279152 398.487591 230.090138 405.711261 241.987532 410.639322 
C 253.884926 415.567384 266.637354 418.104 279.515 418.104 
C 292.392646 418.104 305.145074 415.567384 317.042468 410.639322 
C 328.939862 405.711261 339.750848 398.487591 348.856719 389.381719 
C 357.962591 380.275848 365.186261 369.464862 370.114322 357.567468 
C 375.042384 345.670074 377.579 332.917646 377.579 320.04 
" clip-path="url(#p363253c4cb)" style="fill: none; stroke: #b0b0b0; stroke-width: 0.8; stroke-linecap: square"/>
     </g>
     <g id="text_5">
      <!-- 0.4 -->
      <g transform="translate(370.114322 280.432844)scale(0.1 -0.1)">
       <defs>
        <path id="DejaVuSans-34" d="M 2419 4116 
L 825 1625 
L 2419 1625 
L 2419 4116 
z
M 2253 4666 
L 3047 4666 
L 3047 1625 
L 3713 1625 
L 3713 1100 
L 3047 1100 
L 3047 0 
L 2419 0 
L 2419 1100 
L 313 1100 
L 313 1709 
L 2253 4666 
z
" transform="scale(0.015625)"/>
       </defs>
       <use xlink:href="#DejaVuSans-30"/>
       <use xlink:href="#DejaVuSans-2e" x="63.623047"/>
       <use xlink:href="#DejaVuSans-34" x="95.410156"/>
      </g>
     </g>
    </g>
    <g id="ytick_3">
     <g id="line2d_6">
      <path d="M 426.611 320.04 
C 426.611 300.72353 422.806077 281.594889 415.413984 263.748798 
C 408.021891 245.902707 397.186386 229.686228 383.527579 216.027421 
C 369.868772 202.368614 353.652293 191.533109 335.806202 184.141016 
C 317.960111 176.748923 298.83147 172.944 279.515 172.944 
C 260.19853 172.944 241.069889 176.748923 223.223798 184.141016 
C 205.377707 191.533109 189.161228 202.368614 175.502421 216.027421 
C 161.843614 229.686228 151.008109 245.902707 143.616016 263.748798 
C 136.223923 281.594889 132.419 300.72353 132.419 320.04 
C 132.419 339.35647 136.223923 358.485111 143.616016 376.331202 
C 151.008109 394.177293 161.843614 410.393772 175.502421 424.052579 
C 189.161228 437.711386 205.377707 448.546891 223.223798 455.938984 
C 241.069889 463.331077 260.19853 467.136 279.515 467.136 
C 298.83147 467.136 317.960111 463.331077 335.806202 455.938984 
C 353.652293 448.546891 369.868772 437.711386 383.527579 424.052579 
C 397.186386 410.393772 408.021891 394.177293 415.413984 376.331202 
C 422.806077 358.485111 426.611 339.35647 426.611 320.04 
" clip-path="url(#p363253c4cb)" style="fill: none; stroke: #b0b0b0; stroke-width: 0.8; stroke-linecap: square"/>
     </g>
     <g id="text_6">
      <!-- 0.6 -->
      <g transform="translate(415.413984 261.66911)scale(0.1 -0.1)">
       <defs>
        <path id="DejaVuSans-36" d="M 2113 2584 
Q 1688 2584 1439 2293 
Q 1191 2003 1191 1497 
Q 1191 994 1439 701 
Q 1688 409 2113 409 
Q 2538 409 2786 701 
Q 3034 994 3034 1497 
Q 3034 2003 2786 2293 
Q 2538 2584 2113 2584 
z
M 3366 4563 
L 3366 3988 
Q 3128 4100 2886 4159 
Q 2644 4219 2406 4219 
Q 1781 4219 1451 3797 
Q 1122 3375 1075 2522 
Q 1259 2794 1537 2939 
Q 1816 3084 2150 3084 
Q 2853 3084 3261 2657 
Q 3669 2231 3669 1497 
Q 3669 778 3244 343 
Q 2819 -91 2113 -91 
Q 1303 -91 875 529 
Q 447 1150 447 2328 
Q 447 3434 972 4092 
Q 1497 4750 2381 4750 
Q 2619 4750 2861 4703 
Q 3103 4656 3366 4563 
z
" transform="scale(0.015625)"/>
       </defs>
       <use xlink:href="#DejaVuSans-30"/>
       <use xlink:href="#DejaVuSans-2e" x="63.623047"/>
       <use xlink:href="#DejaVuSans-36" x="95.410156"/>
      </g>
     </g>
    </g>
    <g id="ytick_4">
     <g id="line2d_7">
      <path d="M 475.643 320.04 
C 475.643 294.284707 470.569769 268.779852 460.713645 244.985064 
C 450.857521 221.190276 436.410181 199.568304 418.198439 181.356561 
C 399.986696 163.144819 378.364724 148.697479 354.569936 138.841355 
C 330.775148 128.985231 305.270293 123.912 279.515 123.912 
C 253.759707 123.912 228.254852 128.985231 204.460064 138.841355 
C 180.665276 148.697479 159.043304 163.144819 140.831561 181.356561 
C 122.619819 199.568304 108.172479 221.190276 98.316355 244.985064 
C 88.460231 268.779852 83.387 294.284707 83.387 320.04 
C 83.387 345.795293 88.460231 371.300148 98.316355 395.094936 
C 108.172479 418.889724 122.619819 440.511696 140.831561 458.723439 
C 159.043304 476.935181 180.665276 491.382521 204.460064 501.238645 
C 228.254852 511.094769 253.759707 516.168 279.515 516.168 
C 305.270293 516.168 330.775148 511.094769 354.569936 501.238645 
C 378.364724 491.382521 399.986696 476.935181 418.198439 458.723439 
C 436.410181 440.511696 450.857521 418.889724 460.713645 395.094936 
C 470.569769 371.300148 475.643 345.795293 475.643 320.04 
" clip-path="url(#p363253c4cb)" style="fill: none; stroke: #b0b0b0; stroke-width: 0.8; stroke-linecap: square"/>
     </g>
     <g id="text_7">
      <!-- 0.8 -->
      <g transform="translate(460.713645 242.905376)scale(0.1 -0.1)">
       <defs>
        <path id="DejaVuSans-38" d="M 2034 2216 
Q 1584 2216 1326 1975 
Q 1069 1734 1069 1313 
Q 1069 891 1326 650 
Q 1584 409 2034 409 
Q 2484 409 2743 651 
Q 3003 894 3003 1313 
Q 3003 1734 2745 1975 
Q 2488 2216 2034 2216 
z
M 1403 2484 
Q 997 2584 770 2862 
Q 544 3141 544 3541 
Q 544 4100 942 4425 
Q 1341 4750 2034 4750 
Q 2731 4750 3128 4425 
Q 3525 4100 3525 3541 
Q 3525 3141 3298 2862 
Q 3072 2584 2669 2484 
Q 3125 2378 3379 2068 
Q 3634 1759 3634 1313 
Q 3634 634 3220 271 
Q 2806 -91 2034 -91 
Q 1263 -91 848 271 
Q 434 634 434 1313 
Q 434 1759 690 2068 
Q 947 2378 1403 2484 
z
M 1172 3481 
Q 1172 3119 1398 2916 
Q 1625 2713 2034 2713 
Q 2441 2713 2670 2916 
Q 2900 3119 2900 3481 
Q 2900 3844 2670 4047 
Q 2441 4250 2034 4250 
Q 1625 4250 1398 4047 
Q 1172 3844 1172 3481 
z
" transform="scale(0.015625)"/>
       </defs>
       <use xlink:href="#DejaVuSans-30"/>
       <use xlink:href="#DejaVuSans-2e" x="63.623047"/>
       <use xlink:href="#DejaVuSans-38" x="95.410156"/>
      </g>
     </g>
    </g>
    <g id="ytick_5">
     <g id="line2d_8">
      <path d="M 524.675 320.04 
C 524.675 287.845884 518.333461 255.964815 506.013306 226.22133 
C 493.693151 196.477845 475.633976 169.450379 452.869298 146.685702 
C 430.104621 123.921024 403.077155 105.861849 373.33367 93.541694 
C 343.590185 81.221539 311.709116 74.88 279.515 74.88 
C 247.320884 74.88 215.439815 81.221539 185.69633 93.541694 
C 155.952845 105.861849 128.925379 123.921024 106.160702 146.685702 
C 83.396024 169.450379 65.336849 196.477845 53.016694 226.22133 
C 40.696539 255.964815 34.355 287.845884 34.355 320.04 
C 34.355 352.234116 40.696539 384.115185 53.016694 413.85867 
C 65.336849 443.602155 83.396024 470.629621 106.160702 493.394298 
C 128.925379 516.158976 155.952845 534.218151 185.69633 546.538306 
C 215.439815 558.858461 247.320884 565.2 279.515 565.2 
C 311.709116 565.2 343.590185 558.858461 373.33367 546.538306 
C 403.077155 534.218151 430.104621 516.158976 452.869298 493.394298 
C 475.633976 470.629621 493.693151 443.602155 506.013306 413.85867 
C 518.333461 384.115185 524.675 352.234116 524.675 320.04 
" clip-path="url(#p363253c4cb)" style="fill: none; stroke: #b0b0b0; stroke-width: 0.8; stroke-linecap: square"/>
     </g>
     <g id="text_8">
      <!-- 1.0 -->
      <g transform="translate(506.013306 224.141642)scale(0.1 -0.1)">
       <defs>
        <path id="DejaVuSans-31" d="M 794 531 
L 1825 531 
L 1825 4091 
L 703 3866 
L 703 4441 
L 1819 4666 
L 2450 4666 
L 2450 531 
L 3481 531 
L 3481 0 
L 794 0 
L 794 531 
z
" transform="scale(0.015625)"/>
       </defs>
       <use xlink:href="#DejaVuSans-31"/>
       <use xlink:href="#DejaVuSans-2e" x="63.623047"/>
       <use xlink:href="#DejaVuSans-30" x="95.410156"/>
      </g>
     </g>
    </g>
   </g>
   <g id="line2d_9">
    <path d="M 425.14004 320.04 
L 195.05738 173.755111 
L 241.88294 385.22064 
L 425.14004 320.04 
" clip-path="url(#p363253c4cb)" style="fill: none; stroke: #66c2a5; stroke-width: 2; stroke-linecap: square"/>
   </g>
   <g id="line2d_10">
    <path d="M 412.14656 320.04 
L 217.12178 211.971773 
L 240.16682 388.193047 
L 412.14656 320.04 
" clip-path="url(#p363253c4cb)" style="fill: none; stroke: #fc8d62; stroke-width: 2; stroke-linecap: square"/>
   </g>
   <g id="line2d_11">
    <path d="M 503.10092 320.04 
L 166.1285 123.648821 
L 204.37346 450.188965 
L 503.10092 320.04 
" clip-path="url(#p363253c4cb)" style="fill: none; stroke: #8da0cb; stroke-width: 2; stroke-linecap: square"/>
   </g>
   <g id="line2d_12">
    <path d="M 438.869 320.04 
L 189.4187 163.988631 
L 175.81232 499.658311 
L 438.869 320.04 
" clip-path="url(#p363253c4cb)" style="fill: none; stroke: #e78ac3; stroke-width: 2; stroke-linecap: square"/>
   </g>
   <g id="patch_7">
    <path d="M 524.675 320.04 
C 524.675 287.845884 518.333461 255.964815 506.013306 226.22133 
C 493.693151 196.477845 475.633976 169.450379 452.869298 146.685702 
C 430.104621 123.921024 403.077155 105.861849 373.33367 93.541694 
C 343.590185 81.221539 311.709116 74.88 279.515 74.88 
C 247.320884 74.88 215.439815 81.221539 185.69633 93.541694 
C 155.952845 105.861849 128.925379 123.921024 106.160702 146.685702 
C 83.396024 169.450379 65.336849 196.477845 53.016694 226.22133 
C 40.696539 255.964815 34.355 287.845884 34.355 320.04 
C 34.355 352.234116 40.696539 384.115185 53.016694 413.85867 
C 65.336849 443.602155 83.396024 470.629621 106.160702 493.394298 
C 128.925379 516.158976 155.952845 534.218151 185.69633 546.538306 
C 215.439815 558.858461 247.320884 565.2 279.515 565.2 
C 311.709116 565.2 343.590185 558.858461 373.33367 546.538306 
C 403.077155 534.218151 430.104621 516.158976 452.869298 493.394298 
C 475.633976 470.629621 493.693151 443.602155 506.013306 413.85867 
C 518.333461 384.115185 524.675 352.234116 524.675 320.04 
" style="fill: none; stroke: #000000; stroke-width: 0.8; stroke-linejoin: miter; stroke-linecap: square"/>
   </g>
   <g id="text_9">
    <!-- (a)Single-Module Effect (A, B, F, G) -->
    <g transform="translate(157.709531 54.88)scale(0.14 -0.14)">
     <defs>
      <path id="DejaVuSans-28" d="M 1984 4856 
Q 1566 4138 1362 3434 
Q 1159 2731 1159 2009 
Q 1159 1288 1364 580 
Q 1569 -128 1984 -844 
L 1484 -844 
Q 1016 -109 783 600 
Q 550 1309 550 2009 
Q 550 2706 781 3412 
Q 1013 4119 1484 4856 
L 1984 4856 
z
" transform="scale(0.015625)"/>
      <path id="DejaVuSans-61" d="M 2194 1759 
Q 1497 1759 1228 1600 
Q 959 1441 959 1056 
Q 959 750 1161 570 
Q 1363 391 1709 391 
Q 2188 391 2477 730 
Q 2766 1069 2766 1631 
L 2766 1759 
L 2194 1759 
z
M 3341 1997 
L 3341 0 
L 2766 0 
L 2766 531 
Q 2569 213 2275 61 
Q 1981 -91 1556 -91 
Q 1019 -91 701 211 
Q 384 513 384 1019 
Q 384 1609 779 1909 
Q 1175 2209 1959 2209 
L 2766 2209 
L 2766 2266 
Q 2766 2663 2505 2880 
Q 2244 3097 1772 3097 
Q 1472 3097 1187 3025 
Q 903 2953 641 2809 
L 641 3341 
Q 956 3463 1253 3523 
Q 1550 3584 1831 3584 
Q 2591 3584 2966 3190 
Q 3341 2797 3341 1997 
z
" transform="scale(0.015625)"/>
      <path id="DejaVuSans-29" d="M 513 4856 
L 1013 4856 
Q 1481 4119 1714 3412 
Q 1947 2706 1947 2009 
Q 1947 1309 1714 600 
Q 1481 -109 1013 -844 
L 513 -844 
Q 928 -128 1133 580 
Q 1338 1288 1338 2009 
Q 1338 2731 1133 3434 
Q 928 4138 513 4856 
z
" transform="scale(0.015625)"/>
      <path id="DejaVuSans-69" d="M 603 3500 
L 1178 3500 
L 1178 0 
L 603 0 
L 603 3500 
z
M 603 4863 
L 1178 4863 
L 1178 4134 
L 603 4134 
L 603 4863 
z
" transform="scale(0.015625)"/>
      <path id="DejaVuSans-6e" d="M 3513 2113 
L 3513 0 
L 2938 0 
L 2938 2094 
Q 2938 2591 2744 2837 
Q 2550 3084 2163 3084 
Q 1697 3084 1428 2787 
Q 1159 2491 1159 1978 
L 1159 0 
L 581 0 
L 581 3500 
L 1159 3500 
L 1159 2956 
Q 1366 3272 1645 3428 
Q 1925 3584 2291 3584 
Q 2894 3584 3203 3211 
Q 3513 2838 3513 2113 
z
" transform="scale(0.015625)"/>
      <path id="DejaVuSans-67" d="M 2906 1791 
Q 2906 2416 2648 2759 
Q 2391 3103 1925 3103 
Q 1463 3103 1205 2759 
Q 947 2416 947 1791 
Q 947 1169 1205 825 
Q 1463 481 1925 481 
Q 2391 481 2648 825 
Q 2906 1169 2906 1791 
z
M 3481 434 
Q 3481 -459 3084 -895 
Q 2688 -1331 1869 -1331 
Q 1566 -1331 1297 -1286 
Q 1028 -1241 775 -1147 
L 775 -588 
Q 1028 -725 1275 -790 
Q 1522 -856 1778 -856 
Q 2344 -856 2625 -561 
Q 2906 -266 2906 331 
L 2906 616 
Q 2728 306 2450 153 
Q 2172 0 1784 0 
Q 1141 0 747 490 
Q 353 981 353 1791 
Q 353 2603 747 3093 
Q 1141 3584 1784 3584 
Q 2172 3584 2450 3431 
Q 2728 3278 2906 2969 
L 2906 3500 
L 3481 3500 
L 3481 434 
z
" transform="scale(0.015625)"/>
      <path id="DejaVuSans-6c" d="M 603 4863 
L 1178 4863 
L 1178 0 
L 603 0 
L 603 4863 
z
" transform="scale(0.015625)"/>
      <path id="DejaVuSans-65" d="M 3597 1894 
L 3597 1613 
L 953 1613 
Q 991 1019 1311 708 
Q 1631 397 2203 397 
Q 2534 397 2845 478 
Q 3156 559 3463 722 
L 3463 178 
Q 3153 47 2828 -22 
Q 2503 -91 2169 -91 
Q 1331 -91 842 396 
Q 353 884 353 1716 
Q 353 2575 817 3079 
Q 1281 3584 2069 3584 
Q 2775 3584 3186 3129 
Q 3597 2675 3597 1894 
z
M 3022 2063 
Q 3016 2534 2758 2815 
Q 2500 3097 2075 3097 
Q 1594 3097 1305 2825 
Q 1016 2553 972 2059 
L 3022 2063 
z
" transform="scale(0.015625)"/>
      <path id="DejaVuSans-2d" d="M 313 2009 
L 1997 2009 
L 1997 1497 
L 313 1497 
L 313 2009 
z
" transform="scale(0.015625)"/>
      <path id="DejaVuSans-6f" d="M 1959 3097 
Q 1497 3097 1228 2736 
Q 959 2375 959 1747 
Q 959 1119 1226 758 
Q 1494 397 1959 397 
Q 2419 397 2687 759 
Q 2956 1122 2956 1747 
Q 2956 2369 2687 2733 
Q 2419 3097 1959 3097 
z
M 1959 3584 
Q 2709 3584 3137 3096 
Q 3566 2609 3566 1747 
Q 3566 888 3137 398 
Q 2709 -91 1959 -91 
Q 1206 -91 779 398 
Q 353 888 353 1747 
Q 353 2609 779 3096 
Q 1206 3584 1959 3584 
z
" transform="scale(0.015625)"/>
      <path id="DejaVuSans-64" d="M 2906 2969 
L 2906 4863 
L 3481 4863 
L 3481 0 
L 2906 0 
L 2906 525 
Q 2725 213 2448 61 
Q 2172 -91 1784 -91 
Q 1150 -91 751 415 
Q 353 922 353 1747 
Q 353 2572 751 3078 
Q 1150 3584 1784 3584 
Q 2172 3584 2448 3432 
Q 2725 3281 2906 2969 
z
M 947 1747 
Q 947 1113 1208 752 
Q 1469 391 1925 391 
Q 2381 391 2643 752 
Q 2906 1113 2906 1747 
Q 2906 2381 2643 2742 
Q 2381 3103 1925 3103 
Q 1469 3103 1208 2742 
Q 947 2381 947 1747 
z
" transform="scale(0.015625)"/>
      <path id="DejaVuSans-75" d="M 544 1381 
L 544 3500 
L 1119 3500 
L 1119 1403 
Q 1119 906 1312 657 
Q 1506 409 1894 409 
Q 2359 409 2629 706 
Q 2900 1003 2900 1516 
L 2900 3500 
L 3475 3500 
L 3475 0 
L 2900 0 
L 2900 538 
Q 2691 219 2414 64 
Q 2138 -91 1772 -91 
Q 1169 -91 856 284 
Q 544 659 544 1381 
z
M 1991 3584 
L 1991 3584 
z
" transform="scale(0.015625)"/>
      <path id="DejaVuSans-20" transform="scale(0.015625)"/>
      <path id="DejaVuSans-45" d="M 628 4666 
L 3578 4666 
L 3578 4134 
L 1259 4134 
L 1259 2753 
L 3481 2753 
L 3481 2222 
L 1259 2222 
L 1259 531 
L 3634 531 
L 3634 0 
L 628 0 
L 628 4666 
z
" transform="scale(0.015625)"/>
      <path id="DejaVuSans-66" d="M 2375 4863 
L 2375 4384 
L 1825 4384 
Q 1516 4384 1395 4259 
Q 1275 4134 1275 3809 
L 1275 3500 
L 2222 3500 
L 2222 3053 
L 1275 3053 
L 1275 0 
L 697 0 
L 697 3053 
L 147 3053 
L 147 3500 
L 697 3500 
L 697 3744 
Q 697 4328 969 4595 
Q 1241 4863 1831 4863 
L 2375 4863 
z
" transform="scale(0.015625)"/>
      <path id="DejaVuSans-63" d="M 3122 3366 
L 3122 2828 
Q 2878 2963 2633 3030 
Q 2388 3097 2138 3097 
Q 1578 3097 1268 2742 
Q 959 2388 959 1747 
Q 959 1106 1268 751 
Q 1578 397 2138 397 
Q 2388 397 2633 464 
Q 2878 531 3122 666 
L 3122 134 
Q 2881 22 2623 -34 
Q 2366 -91 2075 -91 
Q 1284 -91 818 406 
Q 353 903 353 1747 
Q 353 2603 823 3093 
Q 1294 3584 2113 3584 
Q 2378 3584 2631 3529 
Q 2884 3475 3122 3366 
z
" transform="scale(0.015625)"/>
      <path id="DejaVuSans-74" d="M 1172 4494 
L 1172 3500 
L 2356 3500 
L 2356 3053 
L 1172 3053 
L 1172 1153 
Q 1172 725 1289 603 
Q 1406 481 1766 481 
L 2356 481 
L 2356 0 
L 1766 0 
Q 1100 0 847 248 
Q 594 497 594 1153 
L 594 3053 
L 172 3053 
L 172 3500 
L 594 3500 
L 594 4494 
L 1172 4494 
z
" transform="scale(0.015625)"/>
      <path id="DejaVuSans-2c" d="M 750 794 
L 1409 794 
L 1409 256 
L 897 -744 
L 494 -744 
L 750 256 
L 750 794 
z
" transform="scale(0.015625)"/>
      <path id="DejaVuSans-42" d="M 1259 2228 
L 1259 519 
L 2272 519 
Q 2781 519 3026 730 
Q 3272 941 3272 1375 
Q 3272 1813 3026 2020 
Q 2781 2228 2272 2228 
L 1259 2228 
z
M 1259 4147 
L 1259 2741 
L 2194 2741 
Q 2656 2741 2882 2914 
Q 3109 3088 3109 3444 
Q 3109 3797 2882 3972 
Q 2656 4147 2194 4147 
L 1259 4147 
z
M 628 4666 
L 2241 4666 
Q 2963 4666 3353 4366 
Q 3744 4066 3744 3513 
Q 3744 3084 3544 2831 
Q 3344 2578 2956 2516 
Q 3422 2416 3680 2098 
Q 3938 1781 3938 1306 
Q 3938 681 3513 340 
Q 3088 0 2303 0 
L 628 0 
L 628 4666 
z
" transform="scale(0.015625)"/>
      <path id="DejaVuSans-46" d="M 628 4666 
L 3309 4666 
L 3309 4134 
L 1259 4134 
L 1259 2759 
L 3109 2759 
L 3109 2228 
L 1259 2228 
L 1259 0 
L 628 0 
L 628 4666 
z
" transform="scale(0.015625)"/>
      <path id="DejaVuSans-47" d="M 3809 666 
L 3809 1919 
L 2778 1919 
L 2778 2438 
L 4434 2438 
L 4434 434 
Q 4069 175 3628 42 
Q 3188 -91 2688 -91 
Q 1594 -91 976 548 
Q 359 1188 359 2328 
Q 359 3472 976 4111 
Q 1594 4750 2688 4750 
Q 3144 4750 3555 4637 
Q 3966 4525 4313 4306 
L 4313 3634 
Q 3963 3931 3569 4081 
Q 3175 4231 2741 4231 
Q 1884 4231 1454 3753 
Q 1025 3275 1025 2328 
Q 1025 1384 1454 906 
Q 1884 428 2741 428 
Q 3075 428 3337 486 
Q 3600 544 3809 666 
z
" transform="scale(0.015625)"/>
     </defs>
     <use xlink:href="#DejaVuSans-28"/>
     <use xlink:href="#DejaVuSans-61" x="39.013672"/>
     <use xlink:href="#DejaVuSans-29" x="100.292969"/>
     <use xlink:href="#DejaVuSans-53" x="139.306641"/>
     <use xlink:href="#DejaVuSans-69" x="202.783203"/>
     <use xlink:href="#DejaVuSans-6e" x="230.566406"/>
     <use xlink:href="#DejaVuSans-67" x="293.945312"/>
     <use xlink:href="#DejaVuSans-6c" x="357.421875"/>
     <use xlink:href="#DejaVuSans-65" x="385.205078"/>
     <use xlink:href="#DejaVuSans-2d" x="446.728516"/>
     <use xlink:href="#DejaVuSans-4d" x="482.8125"/>
     <use xlink:href="#DejaVuSans-6f" x="569.091797"/>
     <use xlink:href="#DejaVuSans-64" x="630.273438"/>
     <use xlink:href="#DejaVuSans-75" x="693.75"/>
     <use xlink:href="#DejaVuSans-6c" x="757.128906"/>
     <use xlink:href="#DejaVuSans-65" x="784.912109"/>
     <use xlink:href="#DejaVuSans-20" x="846.435547"/>
     <use xlink:href="#DejaVuSans-45" x="878.222656"/>
     <use xlink:href="#DejaVuSans-66" x="941.40625"/>
     <use xlink:href="#DejaVuSans-66" x="976.611328"/>
     <use xlink:href="#DejaVuSans-65" x="1011.816406"/>
     <use xlink:href="#DejaVuSans-63" x="1073.339844"/>
     <use xlink:href="#DejaVuSans-74" x="1128.320312"/>
     <use xlink:href="#DejaVuSans-20" x="1167.529297"/>
     <use xlink:href="#DejaVuSans-28" x="1199.316406"/>
     <use xlink:href="#DejaVuSans-41" x="1238.330078"/>
     <use xlink:href="#DejaVuSans-2c" x="1306.738281"/>
     <use xlink:href="#DejaVuSans-20" x="1338.525391"/>
     <use xlink:href="#DejaVuSans-42" x="1370.3125"/>
     <use xlink:href="#DejaVuSans-2c" x="1438.916016"/>
     <use xlink:href="#DejaVuSans-20" x="1470.703125"/>
     <use xlink:href="#DejaVuSans-46" x="1502.490234"/>
     <use xlink:href="#DejaVuSans-2c" x="1560.009766"/>
     <use xlink:href="#DejaVuSans-20" x="1591.796875"/>
     <use xlink:href="#DejaVuSans-47" x="1623.583984"/>
     <use xlink:href="#DejaVuSans-29" x="1701.074219"/>
    </g>
   </g>
   <g id="legend_1">
    <g id="patch_8">
     <path d="M 456.1625 141.5925 
L 517.675 141.5925 
Q 519.675 141.5925 519.675 139.5925 
L 519.675 81.88 
Q 519.675 79.88 517.675 79.88 
L 456.1625 79.88 
Q 454.1625 79.88 454.1625 81.88 
L 454.1625 139.5925 
Q 454.1625 141.5925 456.1625 141.5925 
z
" style="fill: #ffffff; opacity: 0.8; stroke: #cccccc; stroke-linejoin: miter"/>
    </g>
    <g id="line2d_13">
     <path d="M 458.1625 87.978438 
L 468.1625 87.978438 
L 478.1625 87.978438 
" style="fill: none; stroke: #66c2a5; stroke-width: 2; stroke-linecap: square"/>
    </g>
    <g id="text_10">
     <!-- Exp A -->
     <g transform="translate(486.1625 91.478438)scale(0.1 -0.1)">
      <defs>
       <path id="DejaVuSans-78" d="M 3513 3500 
L 2247 1797 
L 3578 0 
L 2900 0 
L 1881 1375 
L 863 0 
L 184 0 
L 1544 1831 
L 300 3500 
L 978 3500 
L 1906 2253 
L 2834 3500 
L 3513 3500 
z
" transform="scale(0.015625)"/>
       <path id="DejaVuSans-70" d="M 1159 525 
L 1159 -1331 
L 581 -1331 
L 581 3500 
L 1159 3500 
L 1159 2969 
Q 1341 3281 1617 3432 
Q 1894 3584 2278 3584 
Q 2916 3584 3314 3078 
Q 3713 2572 3713 1747 
Q 3713 922 3314 415 
Q 2916 -91 2278 -91 
Q 1894 -91 1617 61 
Q 1341 213 1159 525 
z
M 3116 1747 
Q 3116 2381 2855 2742 
Q 2594 3103 2138 3103 
Q 1681 3103 1420 2742 
Q 1159 2381 1159 1747 
Q 1159 1113 1420 752 
Q 1681 391 2138 391 
Q 2594 391 2855 752 
Q 3116 1113 3116 1747 
z
" transform="scale(0.015625)"/>
      </defs>
      <use xlink:href="#DejaVuSans-45"/>
      <use xlink:href="#DejaVuSans-78" x="63.183594"/>
      <use xlink:href="#DejaVuSans-70" x="122.363281"/>
      <use xlink:href="#DejaVuSans-20" x="185.839844"/>
      <use xlink:href="#DejaVuSans-41" x="217.626953"/>
     </g>
    </g>
    <g id="line2d_14">
     <path d="M 458.1625 102.656563 
L 468.1625 102.656563 
L 478.1625 102.656563 
" style="fill: none; stroke: #fc8d62; stroke-width: 2; stroke-linecap: square"/>
    </g>
    <g id="text_11">
     <!-- Exp B -->
     <g transform="translate(486.1625 106.156563)scale(0.1 -0.1)">
      <use xlink:href="#DejaVuSans-45"/>
      <use xlink:href="#DejaVuSans-78" x="63.183594"/>
      <use xlink:href="#DejaVuSans-70" x="122.363281"/>
      <use xlink:href="#DejaVuSans-20" x="185.839844"/>
      <use xlink:href="#DejaVuSans-42" x="217.626953"/>
     </g>
    </g>
    <g id="line2d_15">
     <path d="M 458.1625 117.334688 
L 468.1625 117.334688 
L 478.1625 117.334688 
" style="fill: none; stroke: #8da0cb; stroke-width: 2; stroke-linecap: square"/>
    </g>
    <g id="text_12">
     <!-- Exp F -->
     <g transform="translate(486.1625 120.834688)scale(0.1 -0.1)">
      <use xlink:href="#DejaVuSans-45"/>
      <use xlink:href="#DejaVuSans-78" x="63.183594"/>
      <use xlink:href="#DejaVuSans-70" x="122.363281"/>
      <use xlink:href="#DejaVuSans-20" x="185.839844"/>
      <use xlink:href="#DejaVuSans-46" x="217.626953"/>
     </g>
    </g>
    <g id="line2d_16">
     <path d="M 458.1625 132.012813 
L 468.1625 132.012813 
L 478.1625 132.012813 
" style="fill: none; stroke: #e78ac3; stroke-width: 2; stroke-linecap: square"/>
    </g>
    <g id="text_13">
     <!-- Exp G -->
     <g transform="translate(486.1625 135.512813)scale(0.1 -0.1)">
      <use xlink:href="#DejaVuSans-45"/>
      <use xlink:href="#DejaVuSans-78" x="63.183594"/>
      <use xlink:href="#DejaVuSans-70" x="122.363281"/>
      <use xlink:href="#DejaVuSans-20" x="185.839844"/>
      <use xlink:href="#DejaVuSans-47" x="217.626953"/>
     </g>
    </g>
   </g>
  </g>
  <g id="axes_2">
   <g id="patch_9">
    <path d="M 1095.275 320.04 
C 1095.275 287.845884 1088.933461 255.964815 1076.613306 226.22133 
C 1064.293151 196.477845 1046.233976 169.450379 1023.469298 146.685702 
C 1000.704621 123.921024 973.677155 105.861849 943.93367 93.541694 
C 914.190185 81.221539 882.309116 74.88 850.115 74.88 
C 817.920884 74.88 786.039815 81.221539 756.29633 93.541694 
C 726.552845 105.861849 699.525379 123.921024 676.760702 146.685702 
C 653.996024 169.450379 635.936849 196.477845 623.616694 226.22133 
C 611.296539 255.964815 604.955 287.845884 604.955 320.04 
C 604.955 352.234116 611.296539 384.115185 623.616694 413.85867 
C 635.936849 443.602155 653.996024 470.629621 676.760702 493.394298 
C 699.525379 516.158976 726.552845 534.218151 756.29633 546.538306 
C 786.039815 558.858461 817.920884 565.2 850.115 565.2 
C 882.309116 565.2 914.190185 558.858461 943.93367 546.538306 
C 973.677155 534.218151 1000.704621 516.158976 1023.469298 493.394298 
C 1046.233976 470.629621 1064.293151 443.602155 1076.613306 413.85867 
C 1088.933461 384.115185 1095.275 352.234116 1095.275 320.04 
M 850.115 320.04 
C 850.115 320.04 850.115 320.04 850.115 320.04 
C 850.115 320.04 850.115 320.04 850.115 320.04 
C 850.115 320.04 850.115 320.04 850.115 320.04 
C 850.115 320.04 850.115 320.04 850.115 320.04 
C 850.115 320.04 850.115 320.04 850.115 320.04 
C 850.115 320.04 850.115 320.04 850.115 320.04 
C 850.115 320.04 850.115 320.04 850.115 320.04 
C 850.115 320.04 850.115 320.04 850.115 320.04 
C 850.115 320.04 850.115 320.04 850.115 320.04 
C 850.115 320.04 850.115 320.04 850.115 320.04 
C 850.115 320.04 850.115 320.04 850.115 320.04 
C 850.115 320.04 850.115 320.04 850.115 320.04 
C 850.115 320.04 850.115 320.04 850.115 320.04 
C 850.115 320.04 850.115 320.04 850.115 320.04 
C 850.115 320.04 850.115 320.04 850.115 320.04 
C 850.115 320.04 850.115 320.04 850.115 320.04 
M 1095.275 320.04 
z
" style="fill: #ffffff"/>
   </g>
   <g id="patch_10">
    <path d="M 1009.71416 320.04 
L 760.0187 163.988631 
L 793.23788 418.554062 
z
" clip-path="url(#p04756b7f26)" style="fill: #66c2a5; opacity: 0.1; stroke: #66c2a5; stroke-linejoin: miter"/>
   </g>
   <g id="patch_11">
    <path d="M 1079.09444 320.04 
L 734.8898 120.464099 
L 742.36718 506.664699 
z
" clip-path="url(#p04756b7f26)" style="fill: #fc8d62; opacity: 0.1; stroke: #fc8d62; stroke-linejoin: miter"/>
   </g>
   <g id="patch_12">
    <path d="M 1083.017 320.04 
L 732.68336 116.642433 
L 754.38002 485.857849 
z
" clip-path="url(#p04756b7f26)" style="fill: #8da0cb; opacity: 0.1; stroke: #8da0cb; stroke-linejoin: miter"/>
   </g>
   <g id="patch_13">
    <path d="M 1074.68156 320.04 
L 736.48334 123.224192 
L 735.99302 517.705068 
z
" clip-path="url(#p04756b7f26)" style="fill: #e78ac3; opacity: 0.1; stroke: #e78ac3; stroke-linejoin: miter"/>
   </g>
   <g id="matplotlib.axis_3">
    <g id="xtick_4">
     <g id="line2d_17">
      <path d="M 850.115 320.04 
L 1095.275 320.04 
" clip-path="url(#p04756b7f26)" style="fill: none; stroke: #b0b0b0; stroke-width: 0.8; stroke-linecap: square"/>
     </g>
     <g id="text_14">
      <!-- ARI -->
      <g transform="translate(1100.905469 322.799375)scale(0.1 -0.1)">
       <use xlink:href="#DejaVuSans-41"/>
       <use xlink:href="#DejaVuSans-52" x="68.408203"/>
       <use xlink:href="#DejaVuSans-49" x="137.890625"/>
      </g>
     </g>
    </g>
    <g id="xtick_5">
     <g id="line2d_18">
      <path d="M 850.115 320.04 
L 727.535 107.725212 
" clip-path="url(#p04756b7f26)" style="fill: none; stroke: #b0b0b0; stroke-width: 0.8; stroke-linecap: square"/>
     </g>
     <g id="text_15">
      <!-- NMI -->
      <g transform="translate(711.005313 98.360231)scale(0.1 -0.1)">
       <use xlink:href="#DejaVuSans-4e"/>
       <use xlink:href="#DejaVuSans-4d" x="74.804688"/>
       <use xlink:href="#DejaVuSans-49" x="161.083984"/>
      </g>
     </g>
    </g>
    <g id="xtick_6">
     <g id="line2d_19">
      <path d="M 850.115 320.04 
L 727.535 532.354788 
" clip-path="url(#p04756b7f26)" style="fill: none; stroke: #b0b0b0; stroke-width: 0.8; stroke-linecap: square"/>
     </g>
     <g id="text_16">
      <!-- SC -->
      <g transform="translate(713.869375 547.238519)scale(0.1 -0.1)">
       <use xlink:href="#DejaVuSans-53"/>
       <use xlink:href="#DejaVuSans-43" x="63.476562"/>
      </g>
     </g>
    </g>
   </g>
   <g id="matplotlib.axis_4">
    <g id="ytick_6">
     <g id="line2d_20">
      <path d="M 899.147 320.04 
C 899.147 313.601177 897.878692 307.224963 895.414661 301.276266 
C 892.95063 295.327569 889.338795 289.922076 884.78586 285.36914 
C 880.232924 280.816205 874.827431 277.20437 868.878734 274.740339 
C 862.930037 272.276308 856.553823 271.008 850.115 271.008 
C 843.676177 271.008 837.299963 272.276308 831.351266 274.740339 
C 825.402569 277.20437 819.997076 280.816205 815.44414 285.36914 
C 810.891205 289.922076 807.27937 295.327569 804.815339 301.276266 
C 802.351308 307.224963 801.083 313.601177 801.083 320.04 
C 801.083 326.478823 802.351308 332.855037 804.815339 338.803734 
C 807.27937 344.752431 810.891205 350.157924 815.44414 354.71086 
C 819.997076 359.263795 825.402569 362.87563 831.351266 365.339661 
C 837.299963 367.803692 843.676177 369.072 850.115 369.072 
C 856.553823 369.072 862.930037 367.803692 868.878734 365.339661 
C 874.827431 362.87563 880.232924 359.263795 884.78586 354.71086 
C 889.338795 350.157924 892.95063 344.752431 895.414661 338.803734 
C 897.878692 332.855037 899.147 326.478823 899.147 320.04 
" clip-path="url(#p04756b7f26)" style="fill: none; stroke: #b0b0b0; stroke-width: 0.8; stroke-linecap: square"/>
     </g>
     <g id="text_17">
      <!-- 0.2 -->
      <g transform="translate(895.414661 299.196578)scale(0.1 -0.1)">
       <use xlink:href="#DejaVuSans-30"/>
       <use xlink:href="#DejaVuSans-2e" x="63.623047"/>
       <use xlink:href="#DejaVuSans-32" x="95.410156"/>
      </g>
     </g>
    </g>
    <g id="ytick_7">
     <g id="line2d_21">
      <path d="M 948.179 320.04 
C 948.179 307.162354 945.642384 294.409926 940.714322 282.512532 
C 935.786261 270.615138 928.562591 259.804152 919.456719 250.698281 
C 910.350848 241.592409 899.539862 234.368739 887.642468 229.440678 
C 875.745074 224.512616 862.992646 221.976 850.115 221.976 
C 837.237354 221.976 824.484926 224.512616 812.587532 229.440678 
C 800.690138 234.368739 789.879152 241.592409 780.773281 250.698281 
C 771.667409 259.804152 764.443739 270.615138 759.515678 282.512532 
C 754.587616 294.409926 752.051 307.162354 752.051 320.04 
C 752.051 332.917646 754.587616 345.670074 759.515678 357.567468 
C 764.443739 369.464862 771.667409 380.275848 780.773281 389.381719 
C 789.879152 398.487591 800.690138 405.711261 812.587532 410.639322 
C 824.484926 415.567384 837.237354 418.104 850.115 418.104 
C 862.992646 418.104 875.745074 415.567384 887.642468 410.639322 
C 899.539862 405.711261 910.350848 398.487591 919.456719 389.381719 
C 928.562591 380.275848 935.786261 369.464862 940.714322 357.567468 
C 945.642384 345.670074 948.179 332.917646 948.179 320.04 
" clip-path="url(#p04756b7f26)" style="fill: none; stroke: #b0b0b0; stroke-width: 0.8; stroke-linecap: square"/>
     </g>
     <g id="text_18">
      <!-- 0.4 -->
      <g transform="translate(940.714322 280.432844)scale(0.1 -0.1)">
       <use xlink:href="#DejaVuSans-30"/>
       <use xlink:href="#DejaVuSans-2e" x="63.623047"/>
       <use xlink:href="#DejaVuSans-34" x="95.410156"/>
      </g>
     </g>
    </g>
    <g id="ytick_8">
     <g id="line2d_22">
      <path d="M 997.211 320.04 
C 997.211 300.72353 993.406077 281.594889 986.013984 263.748798 
C 978.621891 245.902707 967.786386 229.686228 954.127579 216.027421 
C 940.468772 202.368614 924.252293 191.533109 906.406202 184.141016 
C 888.560111 176.748923 869.43147 172.944 850.115 172.944 
C 830.79853 172.944 811.669889 176.748923 793.823798 184.141016 
C 775.977707 191.533109 759.761228 202.368614 746.102421 216.027421 
C 732.443614 229.686228 721.608109 245.902707 714.216016 263.748798 
C 706.823923 281.594889 703.019 300.72353 703.019 320.04 
C 703.019 339.35647 706.823923 358.485111 714.216016 376.331202 
C 721.608109 394.177293 732.443614 410.393772 746.102421 424.052579 
C 759.761228 437.711386 775.977707 448.546891 793.823798 455.938984 
C 811.669889 463.331077 830.79853 467.136 850.115 467.136 
C 869.43147 467.136 888.560111 463.331077 906.406202 455.938984 
C 924.252293 448.546891 940.468772 437.711386 954.127579 424.052579 
C 967.786386 410.393772 978.621891 394.177293 986.013984 376.331202 
C 993.406077 358.485111 997.211 339.35647 997.211 320.04 
" clip-path="url(#p04756b7f26)" style="fill: none; stroke: #b0b0b0; stroke-width: 0.8; stroke-linecap: square"/>
     </g>
     <g id="text_19">
      <!-- 0.6 -->
      <g transform="translate(986.013984 261.66911)scale(0.1 -0.1)">
       <use xlink:href="#DejaVuSans-30"/>
       <use xlink:href="#DejaVuSans-2e" x="63.623047"/>
       <use xlink:href="#DejaVuSans-36" x="95.410156"/>
      </g>
     </g>
    </g>
    <g id="ytick_9">
     <g id="line2d_23">
      <path d="M 1046.243 320.04 
C 1046.243 294.284707 1041.169769 268.779852 1031.313645 244.985064 
C 1021.457521 221.190276 1007.010181 199.568304 988.798439 181.356561 
C 970.586696 163.144819 948.964724 148.697479 925.169936 138.841355 
C 901.375148 128.985231 875.870293 123.912 850.115 123.912 
C 824.359707 123.912 798.854852 128.985231 775.060064 138.841355 
C 751.265276 148.697479 729.643304 163.144819 711.431561 181.356561 
C 693.219819 199.568304 678.772479 221.190276 668.916355 244.985064 
C 659.060231 268.779852 653.987 294.284707 653.987 320.04 
C 653.987 345.795293 659.060231 371.300148 668.916355 395.094936 
C 678.772479 418.889724 693.219819 440.511696 711.431561 458.723439 
C 729.643304 476.935181 751.265276 491.382521 775.060064 501.238645 
C 798.854852 511.094769 824.359707 516.168 850.115 516.168 
C 875.870293 516.168 901.375148 511.094769 925.169936 501.238645 
C 948.964724 491.382521 970.586696 476.935181 988.798439 458.723439 
C 1007.010181 440.511696 1021.457521 418.889724 1031.313645 395.094936 
C 1041.169769 371.300148 1046.243 345.795293 1046.243 320.04 
" clip-path="url(#p04756b7f26)" style="fill: none; stroke: #b0b0b0; stroke-width: 0.8; stroke-linecap: square"/>
     </g>
     <g id="text_20">
      <!-- 0.8 -->
      <g transform="translate(1031.313645 242.905376)scale(0.1 -0.1)">
       <use xlink:href="#DejaVuSans-30"/>
       <use xlink:href="#DejaVuSans-2e" x="63.623047"/>
       <use xlink:href="#DejaVuSans-38" x="95.410156"/>
      </g>
     </g>
    </g>
    <g id="ytick_10">
     <g id="line2d_24">
      <path d="M 1095.275 320.04 
C 1095.275 287.845884 1088.933461 255.964815 1076.613306 226.22133 
C 1064.293151 196.477845 1046.233976 169.450379 1023.469298 146.685702 
C 1000.704621 123.921024 973.677155 105.861849 943.93367 93.541694 
C 914.190185 81.221539 882.309116 74.88 850.115 74.88 
C 817.920884 74.88 786.039815 81.221539 756.29633 93.541694 
C 726.552845 105.861849 699.525379 123.921024 676.760702 146.685702 
C 653.996024 169.450379 635.936849 196.477845 623.616694 226.22133 
C 611.296539 255.964815 604.955 287.845884 604.955 320.04 
C 604.955 352.234116 611.296539 384.115185 623.616694 413.85867 
C 635.936849 443.602155 653.996024 470.629621 676.760702 493.394298 
C 699.525379 516.158976 726.552845 534.218151 756.29633 546.538306 
C 786.039815 558.858461 817.920884 565.2 850.115 565.2 
C 882.309116 565.2 914.190185 558.858461 943.93367 546.538306 
C 973.677155 534.218151 1000.704621 516.158976 1023.469298 493.394298 
C 1046.233976 470.629621 1064.293151 443.602155 1076.613306 413.85867 
C 1088.933461 384.115185 1095.275 352.234116 1095.275 320.04 
" clip-path="url(#p04756b7f26)" style="fill: none; stroke: #b0b0b0; stroke-width: 0.8; stroke-linecap: square"/>
     </g>
     <g id="text_21">
      <!-- 1.0 -->
      <g transform="translate(1076.613306 224.141642)scale(0.1 -0.1)">
       <use xlink:href="#DejaVuSans-31"/>
       <use xlink:href="#DejaVuSans-2e" x="63.623047"/>
       <use xlink:href="#DejaVuSans-30" x="95.410156"/>
      </g>
     </g>
    </g>
   </g>
   <g id="line2d_25">
    <path d="M 1009.71416 320.04 
L 760.0187 163.988631 
L 793.23788 418.554062 
L 1009.71416 320.04 
" clip-path="url(#p04756b7f26)" style="fill: none; stroke: #66c2a5; stroke-width: 2; stroke-linecap: square"/>
   </g>
   <g id="line2d_26">
    <path d="M 1079.09444 320.04 
L 734.8898 120.464099 
L 742.36718 506.664699 
L 1079.09444 320.04 
" clip-path="url(#p04756b7f26)" style="fill: none; stroke: #fc8d62; stroke-width: 2; stroke-linecap: square"/>
   </g>
   <g id="line2d_27">
    <path d="M 1083.017 320.04 
L 732.68336 116.642433 
L 754.38002 485.857849 
L 1083.017 320.04 
" clip-path="url(#p04756b7f26)" style="fill: none; stroke: #8da0cb; stroke-width: 2; stroke-linecap: square"/>
   </g>
   <g id="line2d_28">
    <path d="M 1074.68156 320.04 
L 736.48334 123.224192 
L 735.99302 517.705068 
L 1074.68156 320.04 
" clip-path="url(#p04756b7f26)" style="fill: none; stroke: #e78ac3; stroke-width: 2; stroke-linecap: square"/>
   </g>
   <g id="patch_14">
    <path d="M 1095.275 320.04 
C 1095.275 287.845884 1088.933461 255.964815 1076.613306 226.22133 
C 1064.293151 196.477845 1046.233976 169.450379 1023.469298 146.685702 
C 1000.704621 123.921024 973.677155 105.861849 943.93367 93.541694 
C 914.190185 81.221539 882.309116 74.88 850.115 74.88 
C 817.920884 74.88 786.039815 81.221539 756.29633 93.541694 
C 726.552845 105.861849 699.525379 123.921024 676.760702 146.685702 
C 653.996024 169.450379 635.936849 196.477845 623.616694 226.22133 
C 611.296539 255.964815 604.955 287.845884 604.955 320.04 
C 604.955 352.234116 611.296539 384.115185 623.616694 413.85867 
C 635.936849 443.602155 653.996024 470.629621 676.760702 493.394298 
C 699.525379 516.158976 726.552845 534.218151 756.29633 546.538306 
C 786.039815 558.858461 817.920884 565.2 850.115 565.2 
C 882.309116 565.2 914.190185 558.858461 943.93367 546.538306 
C 973.677155 534.218151 1000.704621 516.158976 1023.469298 493.394298 
C 1046.233976 470.629621 1064.293151 443.602155 1076.613306 413.85867 
C 1088.933461 384.115185 1095.275 352.234116 1095.275 320.04 
" style="fill: none; stroke: #000000; stroke-width: 0.8; stroke-linejoin: miter; stroke-linecap: square"/>
   </g>
   <g id="text_22">
    <!-- (b)Multi-Module Combinations (C, D, E, H) -->
    <g transform="translate(703.735156 54.88)scale(0.14 -0.14)">
     <defs>
      <path id="DejaVuSans-62" d="M 3116 1747 
Q 3116 2381 2855 2742 
Q 2594 3103 2138 3103 
Q 1681 3103 1420 2742 
Q 1159 2381 1159 1747 
Q 1159 1113 1420 752 
Q 1681 391 2138 391 
Q 2594 391 2855 752 
Q 3116 1113 3116 1747 
z
M 1159 2969 
Q 1341 3281 1617 3432 
Q 1894 3584 2278 3584 
Q 2916 3584 3314 3078 
Q 3713 2572 3713 1747 
Q 3713 922 3314 415 
Q 2916 -91 2278 -91 
Q 1894 -91 1617 61 
Q 1341 213 1159 525 
L 1159 0 
L 581 0 
L 581 4863 
L 1159 4863 
L 1159 2969 
z
" transform="scale(0.015625)"/>
      <path id="DejaVuSans-6d" d="M 3328 2828 
Q 3544 3216 3844 3400 
Q 4144 3584 4550 3584 
Q 5097 3584 5394 3201 
Q 5691 2819 5691 2113 
L 5691 0 
L 5113 0 
L 5113 2094 
Q 5113 2597 4934 2840 
Q 4756 3084 4391 3084 
Q 3944 3084 3684 2787 
Q 3425 2491 3425 1978 
L 3425 0 
L 2847 0 
L 2847 2094 
Q 2847 2600 2669 2842 
Q 2491 3084 2119 3084 
Q 1678 3084 1418 2786 
Q 1159 2488 1159 1978 
L 1159 0 
L 581 0 
L 581 3500 
L 1159 3500 
L 1159 2956 
Q 1356 3278 1631 3431 
Q 1906 3584 2284 3584 
Q 2666 3584 2933 3390 
Q 3200 3197 3328 2828 
z
" transform="scale(0.015625)"/>
      <path id="DejaVuSans-73" d="M 2834 3397 
L 2834 2853 
Q 2591 2978 2328 3040 
Q 2066 3103 1784 3103 
Q 1356 3103 1142 2972 
Q 928 2841 928 2578 
Q 928 2378 1081 2264 
Q 1234 2150 1697 2047 
L 1894 2003 
Q 2506 1872 2764 1633 
Q 3022 1394 3022 966 
Q 3022 478 2636 193 
Q 2250 -91 1575 -91 
Q 1294 -91 989 -36 
Q 684 19 347 128 
L 347 722 
Q 666 556 975 473 
Q 1284 391 1588 391 
Q 1994 391 2212 530 
Q 2431 669 2431 922 
Q 2431 1156 2273 1281 
Q 2116 1406 1581 1522 
L 1381 1569 
Q 847 1681 609 1914 
Q 372 2147 372 2553 
Q 372 3047 722 3315 
Q 1072 3584 1716 3584 
Q 2034 3584 2315 3537 
Q 2597 3491 2834 3397 
z
" transform="scale(0.015625)"/>
      <path id="DejaVuSans-44" d="M 1259 4147 
L 1259 519 
L 2022 519 
Q 2988 519 3436 956 
Q 3884 1394 3884 2338 
Q 3884 3275 3436 3711 
Q 2988 4147 2022 4147 
L 1259 4147 
z
M 628 4666 
L 1925 4666 
Q 3281 4666 3915 4102 
Q 4550 3538 4550 2338 
Q 4550 1131 3912 565 
Q 3275 0 1925 0 
L 628 0 
L 628 4666 
z
" transform="scale(0.015625)"/>
      <path id="DejaVuSans-48" d="M 628 4666 
L 1259 4666 
L 1259 2753 
L 3553 2753 
L 3553 4666 
L 4184 4666 
L 4184 0 
L 3553 0 
L 3553 2222 
L 1259 2222 
L 1259 0 
L 628 0 
L 628 4666 
z
" transform="scale(0.015625)"/>
     </defs>
     <use xlink:href="#DejaVuSans-28"/>
     <use xlink:href="#DejaVuSans-62" x="39.013672"/>
     <use xlink:href="#DejaVuSans-29" x="102.490234"/>
     <use xlink:href="#DejaVuSans-4d" x="141.503906"/>
     <use xlink:href="#DejaVuSans-75" x="227.783203"/>
     <use xlink:href="#DejaVuSans-6c" x="291.162109"/>
     <use xlink:href="#DejaVuSans-74" x="318.945312"/>
     <use xlink:href="#DejaVuSans-69" x="358.154297"/>
     <use xlink:href="#DejaVuSans-2d" x="385.9375"/>
     <use xlink:href="#DejaVuSans-4d" x="422.021484"/>
     <use xlink:href="#DejaVuSans-6f" x="508.300781"/>
     <use xlink:href="#DejaVuSans-64" x="569.482422"/>
     <use xlink:href="#DejaVuSans-75" x="632.958984"/>
     <use xlink:href="#DejaVuSans-6c" x="696.337891"/>
     <use xlink:href="#DejaVuSans-65" x="724.121094"/>
     <use xlink:href="#DejaVuSans-20" x="785.644531"/>
     <use xlink:href="#DejaVuSans-43" x="817.431641"/>
     <use xlink:href="#DejaVuSans-6f" x="887.255859"/>
     <use xlink:href="#DejaVuSans-6d" x="948.4375"/>
     <use xlink:href="#DejaVuSans-62" x="1045.849609"/>
     <use xlink:href="#DejaVuSans-69" x="1109.326172"/>
     <use xlink:href="#DejaVuSans-6e" x="1137.109375"/>
     <use xlink:href="#DejaVuSans-61" x="1200.488281"/>
     <use xlink:href="#DejaVuSans-74" x="1261.767578"/>
     <use xlink:href="#DejaVuSans-69" x="1300.976562"/>
     <use xlink:href="#DejaVuSans-6f" x="1328.759766"/>
     <use xlink:href="#DejaVuSans-6e" x="1389.941406"/>
     <use xlink:href="#DejaVuSans-73" x="1453.320312"/>
     <use xlink:href="#DejaVuSans-20" x="1505.419922"/>
     <use xlink:href="#DejaVuSans-28" x="1537.207031"/>
     <use xlink:href="#DejaVuSans-43" x="1576.220703"/>
     <use xlink:href="#DejaVuSans-2c" x="1646.044922"/>
     <use xlink:href="#DejaVuSans-20" x="1677.832031"/>
     <use xlink:href="#DejaVuSans-44" x="1709.619141"/>
     <use xlink:href="#DejaVuSans-2c" x="1786.621094"/>
     <use xlink:href="#DejaVuSans-20" x="1818.408203"/>
     <use xlink:href="#DejaVuSans-45" x="1850.195312"/>
     <use xlink:href="#DejaVuSans-2c" x="1913.378906"/>
     <use xlink:href="#DejaVuSans-20" x="1945.166016"/>
     <use xlink:href="#DejaVuSans-48" x="1976.953125"/>
     <use xlink:href="#DejaVuSans-29" x="2052.148438"/>
    </g>
   </g>
   <g id="legend_2">
    <g id="patch_15">
     <path d="M 1026.810938 141.5925 
L 1088.275 141.5925 
Q 1090.275 141.5925 1090.275 139.5925 
L 1090.275 81.88 
Q 1090.275 79.88 1088.275 79.88 
L 1026.810938 79.88 
Q 1024.810938 79.88 1024.810938 81.88 
L 1024.810938 139.5925 
Q 1024.810938 141.5925 1026.810938 141.5925 
z
" style="fill: #ffffff; opacity: 0.8; stroke: #cccccc; stroke-linejoin: miter"/>
    </g>
    <g id="line2d_29">
     <path d="M 1028.810938 87.978438 
L 1038.810938 87.978438 
L 1048.810938 87.978438 
" style="fill: none; stroke: #66c2a5; stroke-width: 2; stroke-linecap: square"/>
    </g>
    <g id="text_23">
     <!-- Exp C -->
     <g transform="translate(1056.810938 91.478438)scale(0.1 -0.1)">
      <use xlink:href="#DejaVuSans-45"/>
      <use xlink:href="#DejaVuSans-78" x="63.183594"/>
      <use xlink:href="#DejaVuSans-70" x="122.363281"/>
      <use xlink:href="#DejaVuSans-20" x="185.839844"/>
      <use xlink:href="#DejaVuSans-43" x="217.626953"/>
     </g>
    </g>
    <g id="line2d_30">
     <path d="M 1028.810938 102.656563 
L 1038.810938 102.656563 
L 1048.810938 102.656563 
" style="fill: none; stroke: #fc8d62; stroke-width: 2; stroke-linecap: square"/>
    </g>
    <g id="text_24">
     <!-- Exp D -->
     <g transform="translate(1056.810938 106.156563)scale(0.1 -0.1)">
      <use xlink:href="#DejaVuSans-45"/>
      <use xlink:href="#DejaVuSans-78" x="63.183594"/>
      <use xlink:href="#DejaVuSans-70" x="122.363281"/>
      <use xlink:href="#DejaVuSans-20" x="185.839844"/>
      <use xlink:href="#DejaVuSans-44" x="217.626953"/>
     </g>
    </g>
    <g id="line2d_31">
     <path d="M 1028.810938 117.334688 
L 1038.810938 117.334688 
L 1048.810938 117.334688 
" style="fill: none; stroke: #8da0cb; stroke-width: 2; stroke-linecap: square"/>
    </g>
    <g id="text_25">
     <!-- Exp E -->
     <g transform="translate(1056.810938 120.834688)scale(0.1 -0.1)">
      <use xlink:href="#DejaVuSans-45"/>
      <use xlink:href="#DejaVuSans-78" x="63.183594"/>
      <use xlink:href="#DejaVuSans-70" x="122.363281"/>
      <use xlink:href="#DejaVuSans-20" x="185.839844"/>
      <use xlink:href="#DejaVuSans-45" x="217.626953"/>
     </g>
    </g>
    <g id="line2d_32">
     <path d="M 1028.810938 132.012813 
L 1038.810938 132.012813 
L 1048.810938 132.012813 
" style="fill: none; stroke: #e78ac3; stroke-width: 2; stroke-linecap: square"/>
    </g>
    <g id="text_26">
     <!-- Exp H -->
     <g transform="translate(1056.810938 135.512813)scale(0.1 -0.1)">
      <use xlink:href="#DejaVuSans-45"/>
      <use xlink:href="#DejaVuSans-78" x="63.183594"/>
      <use xlink:href="#DejaVuSans-70" x="122.363281"/>
      <use xlink:href="#DejaVuSans-20" x="185.839844"/>
      <use xlink:href="#DejaVuSans-48" x="217.626953"/>
     </g>
    </g>
   </g>
  </g>
  <g id="text_27">
   <!-- Radar Charts: Single-Module vs. Multi-Module Comparison -->
   <g transform="translate(343.4425 12.1575)scale(0.16 -0.16)">
    <defs>
     <path id="DejaVuSans-72" d="M 2631 2963 
Q 2534 3019 2420 3045 
Q 2306 3072 2169 3072 
Q 1681 3072 1420 2755 
Q 1159 2438 1159 1844 
L 1159 0 
L 581 0 
L 581 3500 
L 1159 3500 
L 1159 2956 
Q 1341 3275 1631 3429 
Q 1922 3584 2338 3584 
Q 2397 3584 2469 3576 
Q 2541 3569 2628 3553 
L 2631 2963 
z
" transform="scale(0.015625)"/>
     <path id="DejaVuSans-68" d="M 3513 2113 
L 3513 0 
L 2938 0 
L 2938 2094 
Q 2938 2591 2744 2837 
Q 2550 3084 2163 3084 
Q 1697 3084 1428 2787 
Q 1159 2491 1159 1978 
L 1159 0 
L 581 0 
L 581 4863 
L 1159 4863 
L 1159 2956 
Q 1366 3272 1645 3428 
Q 1925 3584 2291 3584 
Q 2894 3584 3203 3211 
Q 3513 2838 3513 2113 
z
" transform="scale(0.015625)"/>
     <path id="DejaVuSans-3a" d="M 750 794 
L 1409 794 
L 1409 0 
L 750 0 
L 750 794 
z
M 750 3309 
L 1409 3309 
L 1409 2516 
L 750 2516 
L 750 3309 
z
" transform="scale(0.015625)"/>
     <path id="DejaVuSans-76" d="M 191 3500 
L 800 3500 
L 1894 563 
L 2988 3500 
L 3597 3500 
L 2284 0 
L 1503 0 
L 191 3500 
z
" transform="scale(0.015625)"/>
    </defs>
    <use xlink:href="#DejaVuSans-52"/>
    <use xlink:href="#DejaVuSans-61" x="67.232422"/>
    <use xlink:href="#DejaVuSans-64" x="128.511719"/>
    <use xlink:href="#DejaVuSans-61" x="191.988281"/>
    <use xlink:href="#DejaVuSans-72" x="253.267578"/>
    <use xlink:href="#DejaVuSans-20" x="294.380859"/>
    <use xlink:href="#DejaVuSans-43" x="326.167969"/>
    <use xlink:href="#DejaVuSans-68" x="395.992188"/>
    <use xlink:href="#DejaVuSans-61" x="459.371094"/>
    <use xlink:href="#DejaVuSans-72" x="520.650391"/>
    <use xlink:href="#DejaVuSans-74" x="561.763672"/>
    <use xlink:href="#DejaVuSans-73" x="600.972656"/>
    <use xlink:href="#DejaVuSans-3a" x="653.072266"/>
    <use xlink:href="#DejaVuSans-20" x="686.763672"/>
    <use xlink:href="#DejaVuSans-53" x="718.550781"/>
    <use xlink:href="#DejaVuSans-69" x="782.027344"/>
    <use xlink:href="#DejaVuSans-6e" x="809.810547"/>
    <use xlink:href="#DejaVuSans-67" x="873.189453"/>
    <use xlink:href="#DejaVuSans-6c" x="936.666016"/>
    <use xlink:href="#DejaVuSans-65" x="964.449219"/>
    <use xlink:href="#DejaVuSans-2d" x="1025.972656"/>
    <use xlink:href="#DejaVuSans-4d" x="1062.056641"/>
    <use xlink:href="#DejaVuSans-6f" x="1148.335938"/>
    <use xlink:href="#DejaVuSans-64" x="1209.517578"/>
    <use xlink:href="#DejaVuSans-75" x="1272.994141"/>
    <use xlink:href="#DejaVuSans-6c" x="1336.373047"/>
    <use xlink:href="#DejaVuSans-65" x="1364.15625"/>
    <use xlink:href="#DejaVuSans-20" x="1425.679688"/>
    <use xlink:href="#DejaVuSans-76" x="1457.466797"/>
    <use xlink:href="#DejaVuSans-73" x="1516.646484"/>
    <use xlink:href="#DejaVuSans-2e" x="1568.746094"/>
    <use xlink:href="#DejaVuSans-20" x="1600.533203"/>
    <use xlink:href="#DejaVuSans-4d" x="1632.320312"/>
    <use xlink:href="#DejaVuSans-75" x="1718.599609"/>
    <use xlink:href="#DejaVuSans-6c" x="1781.978516"/>
    <use xlink:href="#DejaVuSans-74" x="1809.761719"/>
    <use xlink:href="#DejaVuSans-69" x="1848.970703"/>
    <use xlink:href="#DejaVuSans-2d" x="1876.753906"/>
    <use xlink:href="#DejaVuSans-4d" x="1912.837891"/>
    <use xlink:href="#DejaVuSans-6f" x="1999.117188"/>
    <use xlink:href="#DejaVuSans-64" x="2060.298828"/>
    <use xlink:href="#DejaVuSans-75" x="2123.775391"/>
    <use xlink:href="#DejaVuSans-6c" x="2187.154297"/>
    <use xlink:href="#DejaVuSans-65" x="2214.9375"/>
    <use xlink:href="#DejaVuSans-20" x="2276.460938"/>
    <use xlink:href="#DejaVuSans-43" x="2308.248047"/>
    <use xlink:href="#DejaVuSans-6f" x="2378.072266"/>
    <use xlink:href="#DejaVuSans-6d" x="2439.253906"/>
    <use xlink:href="#DejaVuSans-70" x="2536.666016"/>
    <use xlink:href="#DejaVuSans-61" x="2600.142578"/>
    <use xlink:href="#DejaVuSans-72" x="2661.421875"/>
    <use xlink:href="#DejaVuSans-69" x="2702.535156"/>
    <use xlink:href="#DejaVuSans-73" x="2730.318359"/>
    <use xlink:href="#DejaVuSans-6f" x="2782.417969"/>
    <use xlink:href="#DejaVuSans-6e" x="2843.599609"/>
   </g>
  </g>
 </g>
 <defs>
  <clipPath id="p363253c4cb">
   <path d="M 524.675 320.04 
C 524.675 287.845884 518.333461 255.964815 506.013306 226.22133 
C 493.693151 196.477845 475.633976 169.450379 452.869298 146.685702 
C 430.104621 123.921024 403.077155 105.861849 373.33367 93.541694 
C 343.590185 81.221539 311.709116 74.88 279.515 74.88 
C 247.320884 74.88 215.439815 81.221539 185.69633 93.541694 
C 155.952845 105.861849 128.925379 123.921024 106.160702 146.685702 
C 83.396024 169.450379 65.336849 196.477845 53.016694 226.22133 
C 40.696539 255.964815 34.355 287.845884 34.355 320.04 
C 34.355 352.234116 40.696539 384.115185 53.016694 413.85867 
C 65.336849 443.602155 83.396024 470.629621 106.160702 493.394298 
C 128.925379 516.158976 155.952845 534.218151 185.69633 546.538306 
C 215.439815 558.858461 247.320884 565.2 279.515 565.2 
C 311.709116 565.2 343.590185 558.858461 373.33367 546.538306 
C 403.077155 534.218151 430.104621 516.158976 452.869298 493.394298 
C 475.633976 470.629621 493.693151 443.602155 506.013306 413.85867 
C 518.333461 384.115185 524.675 352.234116 524.675 320.04 
M 279.515 320.04 
C 279.515 320.04 279.515 320.04 279.515 320.04 
C 279.515 320.04 279.515 320.04 279.515 320.04 
C 279.515 320.04 279.515 320.04 279.515 320.04 
C 279.515 320.04 279.515 320.04 279.515 320.04 
C 279.515 320.04 279.515 320.04 279.515 320.04 
C 279.515 320.04 279.515 320.04 279.515 320.04 
C 279.515 320.04 279.515 320.04 279.515 320.04 
C 279.515 320.04 279.515 320.04 279.515 320.04 
C 279.515 320.04 279.515 320.04 279.515 320.04 
C 279.515 320.04 279.515 320.04 279.515 320.04 
C 279.515 320.04 279.515 320.04 279.515 320.04 
C 279.515 320.04 279.515 320.04 279.515 320.04 
C 279.515 320.04 279.515 320.04 279.515 320.04 
C 279.515 320.04 279.515 320.04 279.515 320.04 
C 279.515 320.04 279.515 320.04 279.515 320.04 
C 279.515 320.04 279.515 320.04 279.515 320.04 
M 524.675 320.04 
z
"/>
  </clipPath>
  <clipPath id="p04756b7f26">
   <path d="M 1095.275 320.04 
C 1095.275 287.845884 1088.933461 255.964815 1076.613306 226.22133 
C 1064.293151 196.477845 1046.233976 169.450379 1023.469298 146.685702 
C 1000.704621 123.921024 973.677155 105.861849 943.93367 93.541694 
C 914.190185 81.221539 882.309116 74.88 850.115 74.88 
C 817.920884 74.88 786.039815 81.221539 756.29633 93.541694 
C 726.552845 105.861849 699.525379 123.921024 676.760702 146.685702 
C 653.996024 169.450379 635.936849 196.477845 623.616694 226.22133 
C 611.296539 255.964815 604.955 287.845884 604.955 320.04 
C 604.955 352.234116 611.296539 384.115185 623.616694 413.85867 
C 635.936849 443.602155 653.996024 470.629621 676.760702 493.394298 
C 699.525379 516.158976 726.552845 534.218151 756.29633 546.538306 
C 786.039815 558.858461 817.920884 565.2 850.115 565.2 
C 882.309116 565.2 914.190185 558.858461 943.93367 546.538306 
C 973.677155 534.218151 1000.704621 516.158976 1023.469298 493.394298 
C 1046.233976 470.629621 1064.293151 443.602155 1076.613306 413.85867 
C 1088.933461 384.115185 1095.275 352.234116 1095.275 320.04 
M 850.115 320.04 
C 850.115 320.04 850.115 320.04 850.115 320.04 
C 850.115 320.04 850.115 320.04 850.115 320.04 
C 850.115 320.04 850.115 320.04 850.115 320.04 
C 850.115 320.04 850.115 320.04 850.115 320.04 
C 850.115 320.04 850.115 320.04 850.115 320.04 
C 850.115 320.04 850.115 320.04 850.115 320.04 
C 850.115 320.04 850.115 320.04 850.115 320.04 
C 850.115 320.04 850.115 320.04 850.115 320.04 
C 850.115 320.04 850.115 320.04 850.115 320.04 
C 850.115 320.04 850.115 320.04 850.115 320.04 
C 850.115 320.04 850.115 320.04 850.115 320.04 
C 850.115 320.04 850.115 320.04 850.115 320.04 
C 850.115 320.04 850.115 320.04 850.115 320.04 
C 850.115 320.04 850.115 320.04 850.115 320.04 
C 850.115 320.04 850.115 320.04 850.115 320.04 
C 850.115 320.04 850.115 320.04 850.115 320.04 
M 1095.275 320.04 
z
"/>
  </clipPath>
 </defs>
</svg>
